<?xml version="1.0" standalone="no"?>
<!DOCTYPE svg PUBLIC "-//W3C//DTD SVG 20010904//EN"
 "http://www.w3.org/TR/2001/REC-SVG-20010904/DTD/svg10.dtd">
<svg version="1.0" xmlns="http://www.w3.org/2000/svg"
 width="1024.000000pt" height="1024.000000pt" viewBox="0 0 1024.000000 1024.000000"
 preserveAspectRatio="xMidYMid meet">

<g transform="translate(0.000000,1024.000000) scale(0.100000,-0.100000)"
fill="#000000" stroke="none">
<path d="M8937 9013 c-11 -38 -325 -900 -610 -1673 -329 -894 -596 -1623 -767
-2090 -229 -630 -234 -642 -245 -627 -19 26 -117 143 -273 327 -26 30 -107
127 -181 215 -73 88 -155 185 -181 215 -76 89 -271 321 -320 380 -25 30 -57
69 -73 85 -15 17 -69 80 -119 141 l-93 111 -67 -86 c-91 -116 -480 -608 -637
-806 -70 -88 -145 -184 -166 -212 -36 -47 -56 -61 -195 -133 -85 -44 -213
-110 -285 -148 -382 -201 -868 -453 -870 -450 -1 2 -17 53 -34 113 -39 133
-133 449 -236 795 -42 140 -90 300 -106 355 -51 170 -139 463 -184 610 -24 77
-55 178 -69 225 -57 191 -140 461 -171 560 -18 58 -59 191 -90 295 -31 105
-86 280 -120 390 -35 110 -72 228 -82 262 -10 35 -20 63 -23 63 -3 0 -26 -76
-52 -168 -26 -92 -128 -444 -227 -782 -99 -338 -201 -685 -225 -770 -25 -85
-91 -310 -146 -500 -55 -190 -135 -462 -176 -605 -42 -143 -116 -397 -165
-565 -49 -168 -96 -327 -104 -355 -8 -27 -19 -69 -25 -92 -6 -24 -12 -43 -14
-43 -1 0 -54 69 -117 153 -62 83 -116 154 -119 157 -4 3 -42 52 -86 110 -43
57 -110 145 -149 195 -143 187 -355 463 -508 663 -87 114 -189 246 -225 293
-37 48 -85 98 -107 112 -22 13 -96 59 -163 101 -68 42 -126 76 -128 76 -2 0
-4 -562 -4 -1250 l0 -1250 4910 0 4910 0 0 1924 0 1923 -104 214 c-427 881
-760 1557 -767 1558 -4 1 -9 -7 -12 -16z"/>
</g>
</svg>
