<svg width="25" height="25" viewBox="0 0 25 25" fill="none" xmlns="http://www.w3.org/2000/svg">
<path d="M9.74839 15.387L9.74936 15.3872C9.74795 15.3869 9.74692 15.3866 9.7449 15.3864L9.74839 15.387ZM9.59875 16.3758C9.60124 16.3762 9.60334 16.3766 9.60603 16.377L9.59875 16.3758ZM9.71145 15.3826H9.70686C9.72751 15.3837 9.73303 15.3845 9.74487 15.3864C9.7396 15.3858 9.72751 15.3851 9.68396 15.3826H9.71145ZM9.70688 15.3826H10.1192C11.1251 15.3826 11.9407 16.1982 11.9407 17.2041V23.7501C11.9407 24.0262 11.7169 24.2501 11.4407 24.2501C11.1646 24.2501 10.9407 24.0262 10.9407 23.7501V17.2041C10.9407 16.7505 10.5729 16.3826 10.1192 16.3826L9.66675 16.3823C9.65618 16.3815 4.96848 16.3803 4.96848 16.3803C4.90282 16.3803 4.83781 16.3674 4.77715 16.3423C4.71649 16.3171 4.66137 16.2803 4.61494 16.2339L2.3991 14.0183C2.07937 13.6984 1.56084 13.6984 1.24104 14.0184C0.920044 14.3394 0.920044 14.858 1.23979 15.1778L3.84346 17.7814C4.00095 17.9391 4.2115 18.0224 4.43923 18.0196C4.44277 18.0198 8.79648 18.0201 8.79648 18.0201C9.07263 18.0201 9.29648 18.2439 9.29648 18.5201V23.7501C9.29648 24.0262 9.07263 24.2501 8.79648 24.2501C8.52034 24.2501 8.29648 24.0262 8.29648 23.7501V19.0201H4.44448C3.95149 19.0231 3.4844 18.8369 3.13618 18.4884L0.53269 15.8849C-0.177563 15.1746 -0.177563 14.0228 0.53269 13.3125C1.24414 12.6007 2.39609 12.6007 3.10627 13.3113L5.17559 15.3803H9.66274C9.68286 15.3813 9.6967 15.382 9.70688 15.3826ZM15.231 15.3872L15.232 15.387L15.2364 15.3863C15.2346 15.3865 15.2328 15.3868 15.231 15.3872ZM15.2964 16.3826H14.8612C14.4075 16.3826 14.0396 16.7505 14.0396 17.2041V23.7501C14.0396 24.0262 13.8158 24.2501 13.5396 24.2501C13.2635 24.2501 13.0396 24.0262 13.0396 23.7501V17.2041C13.0396 16.1982 13.8552 15.3826 14.8612 15.3826L15.2686 15.3829C15.2791 15.3822 15.2941 15.3815 15.3177 15.3803H19.8048L21.874 13.3114C22.5843 12.6007 23.7363 12.6007 24.4464 13.3113C25.158 14.0228 25.158 15.1746 24.4477 15.8849L21.8444 18.4882C21.6741 18.6589 21.4715 18.7938 21.2483 18.8851C21.0252 18.9763 20.7861 19.0221 20.545 19.0196C20.5421 19.0198 16.6839 19.0201 16.6839 19.0201V23.7501C16.6839 24.0262 16.46 24.2501 16.1839 24.2501C15.9077 24.2501 15.6839 24.0262 15.6839 23.7501V18.5201C15.6839 18.2439 15.9077 18.0201 16.1839 18.0201H20.5359C20.478 18.023 20.478 18.023 20.4678 18.0249C20.4806 18.0226 20.4806 18.0226 20.5473 18.0196C20.7688 18.0223 20.9794 17.9391 21.1371 17.7813L23.7406 15.1778C24.0603 14.8581 24.0603 14.3394 23.7406 14.0196C23.4195 13.6984 22.9009 13.6984 22.5811 14.0184L20.3654 16.2339C20.2716 16.3277 20.1444 16.3803 20.0118 16.3803H15.3331L15.2963 16.3826L15.2964 16.3826ZM16.6358 4.16675C16.6358 2.97014 15.6656 2 14.469 2C13.2725 2 12.3025 2.97007 12.3025 4.16675C12.3025 5.36343 13.2725 6.3335 14.469 6.3335C15.6656 6.3335 16.6358 5.36335 16.6358 4.16675ZM17.6358 4.16675C17.6358 5.91565 16.2179 7.3335 14.469 7.3335C12.7202 7.3335 11.3025 5.91567 11.3025 4.16675C11.3025 2.41782 12.7202 1 14.469 1C16.2179 1 17.6358 2.41785 17.6358 4.16675Z" fill="#129940"/>
<path d="M11.4196 13.8754V8.83367C11.4196 8.0053 12.0913 7.33367 12.9196 7.33367H15.8364C16.6647 7.33367 17.3364 8.0053 17.3364 8.83367V13.8754C17.3364 14.1516 17.5602 14.3754 17.8364 14.3754C18.1125 14.3754 18.3364 14.1516 18.3364 13.8754V8.83367C18.3364 7.45303 17.217 6.33367 15.8364 6.33367H12.9196C11.539 6.33367 10.4196 7.45303 10.4196 8.83367V13.8754C10.4196 14.1516 10.6435 14.3754 10.9196 14.3754C11.1958 14.3754 11.4196 14.1516 11.4196 13.8754ZM9.36753 13.839V6.09197C9.36753 4.78782 8.31018 3.73047 7.00603 3.73047C5.70188 3.73047 4.64453 4.78782 4.64453 6.09197C4.64453 6.36811 4.86838 6.59197 5.14453 6.59197C5.42068 6.59197 5.64453 6.36811 5.64453 6.09197C5.64453 5.34011 6.25417 4.73047 7.00603 4.73047C7.75789 4.73047 8.36753 5.34011 8.36753 6.09197V13.839C8.36753 14.1151 8.59138 14.339 8.86753 14.339C9.14368 14.339 9.36753 14.1151 9.36753 13.839Z" fill="#129940"/>
</svg>
