<?xml version="1.0" standalone="no"?>
<!DOCTYPE svg PUBLIC "-//W3C//DTD SVG 20010904//EN"
 "http://www.w3.org/TR/2001/REC-SVG-20010904/DTD/svg10.dtd">
<svg version="1.0" xmlns="http://www.w3.org/2000/svg"
 width="755.000000pt" height="501.000000pt" viewBox="0 0 755.000000 501.000000"
 preserveAspectRatio="xMidYMid meet">

<g transform="translate(0.000000,501.000000) scale(0.100000,-0.100000)"
fill="#000000" stroke="none">
<path d="M3377 4304 c-18 -19 0 -24 79 -24 64 0 85 3 82 13 -5 13 -148 23
-161 11z m121 -11 c-21 -2 -55 -2 -75 0 -21 2 -4 4 37 4 41 0 58 -2 38 -4z"/>
<path d="M3373 4200 c3 -13 30 -15 167 -15 114 0 164 3 167 12 3 8 -35 11
-139 10 l-143 -1 135 -6 135 -6 -137 -2 c-101 -1 -138 1 -141 11 -4 9 -8 8
-16 -3 -10 -13 -12 -13 -22 0 -9 13 -10 13 -6 0z"/>
<path d="M3490 3690 c8 -5 20 -10 25 -10 6 0 3 5 -5 10 -8 5 -19 10 -25 10 -5
0 -3 -5 5 -10z"/>
<path d="M3060 3250 c0 -13 11 -13 30 0 12 8 11 10 -7 10 -13 0 -23 -4 -23
-10z"/>
<path d="M3133 3253 c15 -2 39 -2 55 0 15 2 2 4 -28 4 -30 0 -43 -2 -27 -4z"/>
<path d="M3086 3178 c8 -12 114 -10 114 3 0 6 -22 9 -59 7 -33 -1 -57 -6 -55
-10z"/>
<path d="M3215 3180 c-3 -5 -1 -10 4 -10 6 0 11 5 11 10 0 6 -2 10 -4 10 -3 0
-8 -4 -11 -10z"/>
<path d="M3240 3180 c0 -6 7 -10 15 -10 8 0 15 2 15 4 0 2 -7 6 -15 10 -8 3
-15 1 -15 -4z"/>
<path d="M3330 3180 c0 -5 5 -10 10 -10 6 0 10 5 10 10 0 6 -4 10 -10 10 -5 0
-10 -4 -10 -10z"/>
<path d="M3380 3179 c-19 -5 -13 -7 23 -8 28 -1 46 3 42 8 -6 11 -27 11 -65 0z"/>
<path d="M3721 1921 c-22 -40 -18 -191 4 -191 12 0 15 13 15 55 0 48 2 55 20
55 11 0 20 7 20 15 0 8 -9 15 -20 15 -28 0 -25 29 5 40 34 13 32 30 -5 30 -19
0 -33 -7 -39 -19z"/>
<path d="M2700 1830 c0 -82 3 -100 15 -100 12 0 15 13 15 59 0 33 4 62 9 65 5
3 28 -23 51 -59 27 -42 49 -65 61 -65 17 0 19 9 19 100 0 81 -3 100 -15 100
-11 0 -15 -17 -17 -72 l-3 -73 -49 73 c-31 46 -55 72 -67 72 -17 0 -19 -9 -19
-100z"/>
<path d="M3630 1910 c0 -15 5 -20 18 -18 9 2 17 10 17 18 0 8 -8 16 -17 18
-13 2 -18 -3 -18 -18z"/>
<path d="M3807 1924 c-9 -9 4 -34 18 -34 14 0 27 25 18 34 -4 3 -12 6 -18 6
-6 0 -14 -3 -18 -6z"/>
<path d="M4330 1910 c0 -15 5 -20 18 -18 9 2 17 10 17 18 0 8 -8 16 -17 18
-13 2 -18 -3 -18 -18z"/>
<path d="M3525 1906 c-3 -9 -7 -23 -10 -31 -8 -26 14 -130 30 -141 20 -15 55
-6 48 11 -2 8 -11 11 -19 8 -11 -4 -14 5 -14 41 0 39 3 46 20 46 26 0 26 20 1
27 -11 3 -21 14 -23 26 -4 25 -26 34 -33 13z"/>
<path d="M4234 1913 c-7 -2 -10 -13 -7 -23 3 -11 0 -20 -6 -20 -6 0 -11 -7
-11 -15 0 -8 5 -15 10 -15 6 0 10 -22 10 -50 0 -53 16 -72 52 -62 21 5 19 27
-3 27 -9 0 -15 14 -17 43 -3 37 -1 42 17 42 12 0 21 7 21 15 0 8 -9 15 -20 15
-13 0 -20 7 -20 19 0 22 -9 30 -26 24z"/>
<path d="M2935 1845 c-49 -48 -20 -116 49 -118 44 -1 76 28 76 70 0 32 -42 73
-75 73 -14 0 -37 -11 -50 -25z m85 -24 c14 -27 13 -37 -6 -55 -22 -23 -41 -20
-59 8 -13 19 -14 29 -5 45 14 27 56 28 70 2z"/>
<path d="M3174 1861 c-2 -2 -4 -33 -4 -68 0 -46 4 -63 14 -63 8 0 16 19 22 53
7 43 13 53 31 55 17 3 26 -4 33 -24 6 -15 10 -34 9 -43 -3 -31 1 -41 16 -41
21 0 20 88 0 117 -13 18 -24 22 -66 20 -28 -1 -53 -4 -55 -6z"/>
<path d="M3362 1847 c-27 -28 -28 -67 -4 -95 32 -39 102 -30 121 16 31 75 -62
138 -117 79z m88 -26 c18 -35 -18 -79 -54 -65 -22 8 -31 51 -16 69 18 21 57
19 70 -4z"/>
<path d="M3630 1800 c0 -56 3 -70 15 -70 12 0 15 14 15 70 0 56 -3 70 -15 70
-12 0 -15 -14 -15 -70z"/>
<path d="M3810 1800 c0 -56 3 -70 15 -70 12 0 15 14 15 70 0 56 -3 70 -15 70
-12 0 -15 -14 -15 -70z"/>
<path d="M3902 1847 c-55 -58 1 -142 78 -116 37 13 29 33 -10 24 -19 -4 -33
-1 -44 10 -36 36 -8 82 44 72 35 -7 49 8 21 22 -32 17 -66 13 -89 -12z"/>
<path d="M4067 1859 c-47 -27 -38 -110 13 -127 16 -6 31 -8 34 -5 3 3 19 6 36
5 l30 -1 0 68 0 68 -47 1 c-27 0 -56 -4 -66 -9z m71 -31 c35 -35 -15 -99 -53
-68 -18 15 -20 66 -2 73 22 9 43 7 55 -5z"/>
<path d="M4330 1800 c0 -56 3 -70 15 -70 12 0 15 14 15 70 0 56 -3 70 -15 70
-12 0 -15 -14 -15 -70z"/>
<path d="M4422 1847 c-27 -28 -28 -67 -4 -95 32 -38 106 -29 122 14 15 38 12
53 -15 79 -31 32 -74 33 -103 2z m90 -32 c10 -22 9 -29 -9 -46 -26 -26 -60
-18 -69 17 -13 52 56 77 78 29z"/>
<path d="M4584 1861 c-2 -2 -4 -33 -4 -68 0 -49 3 -63 15 -63 11 0 15 11 15
38 0 46 19 76 46 70 15 -2 20 -13 22 -56 3 -43 6 -52 22 -52 16 0 18 7 15 55
-4 73 -15 85 -77 82 -27 -1 -52 -4 -54 -6z"/>
<path d="M4766 1857 c-26 -19 -16 -50 21 -67 45 -21 44 -44 -2 -36 -41 8 -48
-9 -10 -24 65 -25 106 43 46 75 -45 23 -50 39 -12 33 34 -5 52 9 30 23 -20 13
-53 11 -73 -4z"/>
<path d="M2160 1310 c0 -53 4 -90 10 -90 6 0 10 6 10 14 0 7 6 19 14 25 12 10
18 7 31 -13 26 -39 40 -31 17 8 l-20 34 21 21 c11 11 17 24 13 28 -4 4 -20 -7
-34 -25 -15 -18 -30 -32 -34 -32 -5 0 -8 27 -8 60 0 33 -4 60 -10 60 -6 0 -10
-37 -10 -90z"/>
<path d="M2480 1310 c0 -53 4 -90 10 -90 6 0 10 37 10 90 0 53 -4 90 -10 90
-6 0 -10 -37 -10 -90z"/>
<path d="M2610 1311 c0 -54 4 -91 10 -91 6 0 10 6 10 14 0 7 7 19 15 26 12 10
17 7 26 -14 7 -14 19 -26 26 -26 11 0 9 7 -6 29 -26 36 -26 43 -1 66 11 10 18
21 15 23 -3 3 -21 -10 -40 -28 l-35 -34 0 56 c0 31 -4 60 -10 63 -6 4 -10 -27
-10 -84z"/>
<path d="M3440 1310 c0 -53 4 -90 10 -90 6 0 10 17 10 38 0 41 14 62 42 62 23
0 41 -35 36 -71 -3 -16 -1 -29 4 -29 4 0 8 22 8 49 0 58 -16 76 -60 66 -29 -6
-30 -5 -30 29 0 20 -4 36 -10 36 -6 0 -10 -37 -10 -90z"/>
<path d="M5300 1365 c0 -33 -1 -34 -29 -29 -54 11 -91 -55 -57 -101 10 -14 26
-20 60 -20 l46 0 0 93 c0 54 -4 92 -10 92 -5 0 -10 -16 -10 -35z m-10 -59 c28
-35 -11 -93 -47 -70 -36 22 -23 84 17 84 10 0 23 -7 30 -14z"/>
<path d="M1720 1305 c0 -74 2 -85 18 -86 9 0 26 -2 38 -3 11 -1 29 1 40 5 13
5 4 8 -28 8 l-48 1 0 80 c0 47 -4 80 -10 80 -6 0 -10 -35 -10 -85z"/>
<path d="M2542 1381 c2 -7 7 -12 11 -12 12 1 9 15 -3 20 -7 2 -11 -2 -8 -8z"/>
<path d="M4150 1358 c0 -25 3 -29 10 -18 13 20 13 50 0 50 -5 0 -10 -15 -10
-32z"/>
<path d="M4875 1381 c-6 -11 9 -23 19 -14 9 9 7 23 -3 23 -6 0 -12 -4 -16 -9z"/>
<path d="M4209 1358 c-6 -105 12 -158 48 -143 16 6 16 8 -4 16 -19 7 -23 16
-23 49 0 33 3 40 20 40 11 0 20 5 20 10 0 6 -9 10 -20 10 -13 0 -20 7 -20 20
0 28 -20 25 -21 -2z"/>
<path d="M1872 1324 c-41 -29 -24 -97 29 -109 59 -14 97 68 49 107 -27 22 -49
23 -78 2z m64 -12 c21 -14 25 -45 8 -63 -30 -33 -74 -18 -74 26 0 36 37 57 66
37z"/>
<path d="M2020 1320 c-28 -28 -25 -64 6 -89 15 -12 33 -21 41 -21 21 0 63 46
63 70 0 28 -35 60 -65 60 -14 0 -34 -9 -45 -20z m80 -15 c31 -38 -27 -96 -65
-65 -18 15 -20 51 -3 68 17 17 53 15 68 -3z"/>
<path d="M2300 1325 c-17 -20 -7 -41 27 -57 33 -16 28 -34 -9 -32 -32 2 -37
-12 -8 -21 27 -8 57 2 64 22 7 18 -1 30 -35 47 -12 6 -25 17 -27 25 -4 11 2
13 27 8 32 -7 43 6 15 17 -25 10 -41 7 -54 -9z"/>
<path d="M2548 1333 c-2 -5 -1 -33 3 -63 l6 -55 1 63 c2 57 -1 74 -10 55z"/>
<path d="M2747 1322 c-26 -28 -22 -78 7 -97 24 -16 76 -12 76 6 0 5 -11 7 -25
3 -25 -6 -55 9 -55 27 0 5 20 9 45 9 38 0 45 3 45 19 0 22 -35 51 -61 51 -9 0
-23 -8 -32 -18z m71 -19 c2 -9 -8 -13 -32 -13 -34 0 -44 8 -29 24 11 11 56 2
61 -11z"/>
<path d="M2940 1331 c0 -5 9 -30 21 -56 15 -34 19 -57 14 -84 -10 -54 9 -29
44 62 35 86 35 87 22 87 -5 0 -15 -17 -21 -37 -19 -58 -26 -59 -48 -9 -20 43
-32 58 -32 37z"/>
<path d="M3092 1324 c-45 -31 -20 -107 36 -107 42 0 62 19 62 59 0 34 -28 64
-60 64 -9 0 -26 -7 -38 -16z m66 -13 c18 -11 11 -61 -10 -75 -23 -14 -52 3
-56 33 -6 40 32 64 66 42z"/>
<path d="M3231 1288 c-1 -64 5 -71 61 -72 l38 -1 0 65 c0 69 -16 74 -22 6 -3
-44 -29 -69 -50 -48 -7 7 -15 33 -19 60 l-6 47 -2 -57z"/>
<path d="M3606 1321 c-9 -10 -16 -32 -16 -49 0 -39 37 -68 72 -56 13 4 29 7
36 6 8 -2 12 14 12 55 l0 58 -44 2 c-31 1 -49 -4 -60 -16z m72 -13 c27 -27 7
-78 -29 -78 -23 0 -49 38 -41 59 11 31 48 41 70 19z"/>
<path d="M3740 1336 c0 -20 46 -116 55 -116 14 0 61 107 51 117 -3 3 -15 -15
-26 -41 -12 -25 -25 -44 -29 -42 -4 3 -13 23 -21 45 -7 23 -17 41 -22 41 -4 0
-8 -2 -8 -4z"/>
<path d="M3890 1320 c-11 -11 -20 -31 -20 -45 0 -29 32 -65 58 -65 10 0 27 7
38 15 18 15 17 16 -14 10 -20 -4 -39 -2 -47 5 -26 21 -17 30 30 30 37 0 45 3
45 18 0 23 -30 52 -53 52 -9 0 -26 -9 -37 -20z m68 -17 c2 -9 -8 -13 -33 -13
-33 0 -36 2 -25 15 15 18 51 16 58 -2z"/>
<path d="M4020 1278 c0 -32 4 -58 10 -58 6 0 10 20 10 45 0 33 5 47 16 52 28
11 49 -11 52 -56 4 -55 22 -53 22 2 0 55 -21 77 -73 74 l-37 -2 0 -57z"/>
<path d="M4370 1279 c0 -67 17 -80 22 -17 2 34 8 45 28 55 28 14 28 14 -17 18
l-33 3 0 -59z"/>
<path d="M4470 1320 c-53 -53 17 -141 75 -95 19 15 19 16 -13 10 -20 -4 -39
-2 -47 5 -26 22 -16 30 35 30 38 0 50 4 50 15 0 22 -37 55 -60 55 -11 0 -29
-9 -40 -20z m70 -15 c11 -13 7 -15 -30 -15 -37 0 -41 2 -30 15 7 8 20 15 30
15 10 0 23 -7 30 -15z"/>
<path d="M4624 1332 c-64 -42 -11 -148 56 -112 28 15 25 20 -8 14 -19 -4 -34
0 -45 11 -37 36 -9 82 43 71 31 -6 42 7 14 18 -21 8 -47 7 -60 -2z"/>
<path d="M4747 1322 c-26 -28 -22 -78 7 -97 24 -16 76 -12 76 6 0 5 -11 7 -25
3 -25 -6 -55 9 -55 27 0 5 20 9 45 9 38 0 45 3 45 19 0 22 -35 51 -61 51 -9 0
-23 -8 -32 -18z m71 -19 c2 -9 -8 -13 -32 -13 -34 0 -44 8 -29 24 11 11 56 2
61 -11z"/>
<path d="M4880 1281 c0 -34 4 -61 10 -61 6 0 10 24 10 54 0 30 -4 58 -10 61
-6 4 -10 -17 -10 -54z"/>
<path d="M4930 1336 c0 -20 46 -116 55 -116 14 0 61 107 51 117 -3 3 -15 -15
-26 -41 -12 -25 -25 -44 -29 -42 -4 3 -13 23 -21 45 -7 23 -17 41 -22 41 -4 0
-8 -2 -8 -4z"/>
<path d="M5082 1324 c-25 -17 -29 -60 -8 -89 15 -21 70 -25 89 -6 10 11 6 12
-21 6 -21 -4 -38 -2 -47 5 -26 21 -17 30 30 30 38 0 45 3 45 19 0 24 -26 51
-48 51 -10 0 -28 -7 -40 -16z m66 -21 c2 -9 -8 -13 -33 -13 -33 0 -36 2 -25
15 15 18 51 16 58 -2z"/>
<path d="M5451 1324 c-31 -22 -29 -78 4 -100 16 -10 32 -13 47 -8 13 4 29 7
36 6 8 -2 12 14 12 55 l0 59 -39 1 c-21 1 -48 -5 -60 -13z m69 -18 c28 -35
-11 -93 -47 -70 -36 22 -23 84 17 84 10 0 23 -7 30 -14z"/>
<path d="M5590 1280 c0 -68 17 -82 22 -19 3 45 24 67 52 56 11 -5 16 -19 16
-52 0 -25 5 -45 10 -45 15 0 12 84 -4 106 -13 17 -18 18 -45 7 -17 -6 -31 -7
-31 -2 0 5 -4 9 -10 9 -6 0 -10 -27 -10 -60z"/>
<path d="M5730 1329 c0 -6 10 -33 21 -60 18 -40 20 -55 11 -74 -7 -15 -8 -26
-2 -30 6 -4 14 4 19 17 5 13 20 52 35 87 30 73 29 71 17 71 -5 0 -18 -21 -29
-47 l-20 -48 -21 48 c-22 46 -31 57 -31 36z"/>
<path d="M3273 928 c-11 -40 -5 -148 8 -148 5 0 9 23 9 50 0 38 4 50 15 50 8
0 15 5 15 10 0 6 -7 10 -15 10 -8 0 -15 9 -15 20 0 18 10 25 33 21 4 0 7 4 7
9 0 6 -11 10 -25 10 -19 0 -26 -7 -32 -32z"/>
<path d="M3202 941 c2 -7 7 -12 11 -12 12 1 9 15 -3 20 -7 2 -11 -2 -8 -8z"/>
<path d="M3356 941 c-4 -5 -2 -12 3 -15 5 -4 12 -2 15 3 4 5 2 12 -3 15 -5 4
-12 2 -15 -3z"/>
<path d="M3800 934 c0 -8 5 -12 10 -9 6 3 10 10 10 16 0 5 -4 9 -10 9 -5 0
-10 -7 -10 -16z"/>
<path d="M3113 920 c-21 -50 5 -149 39 -150 17 0 16 18 -2 23 -16 4 -20 14
-20 46 0 34 3 41 20 41 11 0 20 5 20 10 0 6 -9 10 -19 10 -12 0 -21 8 -24 23
-3 22 -3 22 -14 -3z"/>
<path d="M3709 918 c-4 -58 4 -124 15 -136 7 -7 20 -10 31 -6 17 7 17 8 -3 15
-18 7 -22 16 -22 49 0 33 3 40 20 40 11 0 20 5 20 10 0 6 -9 10 -20 10 -13 0
-20 7 -20 20 0 28 -20 25 -21 -2z"/>
<path d="M4618 918 c-2 -13 -2 -47 0 -76 4 -53 27 -82 54 -66 7 5 4 10 -10 15
-18 7 -22 16 -22 49 0 33 3 40 20 40 11 0 20 5 20 10 0 6 -9 10 -20 10 -13 0
-20 7 -20 20 0 27 -17 25 -22 -2z"/>
<path d="M2810 840 c0 -68 17 -82 22 -19 3 45 24 67 52 56 11 -5 16 -19 16
-52 0 -25 5 -45 10 -45 14 0 12 94 -2 108 -15 15 -51 15 -66 0 -9 -9 -12 -9
-12 0 0 7 -4 12 -10 12 -6 0 -10 -27 -10 -60z"/>
<path d="M2970 880 c-11 -11 -20 -29 -20 -40 0 -24 42 -70 63 -70 26 0 67 41
67 66 0 31 -33 64 -65 64 -14 0 -34 -9 -45 -20z m78 -12 c30 -30 0 -85 -41
-74 -31 7 -46 48 -27 71 15 18 51 20 68 3z"/>
<path d="M3209 894 c-7 -57 -7 -114 0 -114 13 0 18 21 15 69 -3 39 -12 68 -15
45z"/>
<path d="M3359 893 c-3 -16 3 -108 7 -112 2 -2 4 23 4 57 0 34 -2 62 -5 62 -3
0 -6 -3 -6 -7z"/>
<path d="M3426 878 c-33 -47 -10 -101 43 -101 17 0 37 5 44 12 10 11 6 12 -21
6 -39 -8 -62 7 -62 40 0 32 24 49 61 41 27 -5 30 -4 19 9 -19 23 -66 19 -84
-7z"/>
<path d="M3561 874 c-14 -17 -19 -35 -15 -48 8 -28 44 -58 61 -51 8 3 26 5 39
5 24 0 25 2 22 57 l-3 56 -41 4 c-36 3 -45 0 -63 -23z m79 -9 c15 -19 6 -61
-16 -69 -42 -16 -75 24 -54 64 13 24 52 27 70 5z"/>
<path d="M3800 840 c0 -33 4 -60 10 -60 6 0 10 27 10 60 0 33 -4 60 -10 60 -6
0 -10 -27 -10 -60z"/>
<path d="M3877 882 c-21 -23 -22 -75 -1 -92 23 -20 75 -16 90 5 21 29 17 72
-8 89 -30 21 -61 20 -81 -2z m71 -14 c16 -16 15 -53 -3 -68 -33 -27 -81 15
-64 58 9 24 47 30 67 10z"/>
<path d="M4020 837 c0 -63 14 -72 18 -11 4 48 8 54 37 54 25 0 30 -10 38 -75
2 -18 5 -9 6 21 1 61 -10 74 -62 71 l-37 -2 0 -58z"/>
<path d="M4170 885 c-16 -20 -6 -43 25 -55 14 -5 25 -17 25 -26 0 -13 -6 -15
-30 -10 -33 6 -42 -9 -10 -17 61 -16 85 39 30 68 -39 20 -38 35 3 35 24 0 28
3 17 10 -22 14 -46 12 -60 -5z"/>
<path d="M4340 890 c0 -6 9 -29 21 -52 16 -31 19 -51 15 -82 -10 -57 6 -38 44
53 33 80 35 91 20 91 -5 0 -10 -4 -10 -9 0 -5 -7 -26 -16 -47 l-16 -39 -24 48
c-24 46 -34 57 -34 37z"/>
<path d="M4490 880 c-53 -53 17 -141 75 -95 19 15 19 16 -13 10 -20 -4 -39 -2
-47 5 -26 21 -17 30 30 30 38 0 45 3 45 19 0 25 -26 51 -51 51 -10 0 -28 -9
-39 -20z m68 -17 c2 -9 -8 -13 -33 -13 -33 0 -36 2 -25 15 15 18 51 16 58 -2z"/>
<path d="M4710 790 c0 -5 5 -10 10 -10 6 0 10 5 10 10 0 6 -4 10 -10 10 -5 0
-10 -4 -10 -10z"/>
</g>
</svg>
