<svg width="20" height="20" viewBox="0 0 20 20" fill="none" xmlns="http://www.w3.org/2000/svg">
<g clip-path="url(#clip0_669_9)">
<path d="M9.9987 2.49977C11.4821 2.49977 12.9321 2.93964 14.1655 3.76375C15.3988 4.58786 16.3601 5.7592 16.9278 7.12964C17.4955 8.50009 17.644 10.0081 17.3546 11.4629C17.0652 12.9178 16.3509 14.2542 15.302 15.3031C14.2531 16.352 12.9167 17.0663 11.4619 17.3557C10.007 17.645 8.49902 17.4965 7.12858 16.9289C5.75813 16.3612 4.58679 15.3999 3.76268 14.1665C2.93857 12.9332 2.4987 11.4831 2.4987 9.99977C2.50964 8.01402 3.30333 6.11272 4.70749 4.70856C6.11165 3.3044 8.01295 2.51071 9.9987 2.49977ZM9.9987 0.833103C8.18571 0.833103 6.41343 1.37072 4.90597 2.37797C3.39852 3.38521 2.22361 4.81685 1.52981 6.49184C0.836003 8.16683 0.654472 10.0099 1.00817 11.7881C1.36187 13.5663 2.23491 15.1996 3.51689 16.4816C4.79887 17.7636 6.43221 18.6366 8.21037 18.9903C9.98853 19.344 11.8316 19.1625 13.5066 18.4687C15.1816 17.7749 16.6133 16.5999 17.6205 15.0925C18.6278 13.585 19.1654 11.8128 19.1654 9.99977C19.1709 8.79444 18.9375 7.59996 18.4788 6.48532C18.0201 5.37068 17.3451 4.35796 16.4928 3.50566C15.6405 2.65335 14.6278 1.97835 13.5131 1.51964C12.3985 1.06092 11.204 0.827587 9.9987 0.833103Z" fill="#BC0000"/>
<path d="M7.74955 13.4997L5.24955 11.0413C5.10519 10.8938 5.01764 10.6999 5.00239 10.4941C4.98714 10.2882 5.04517 10.0836 5.16622 9.91634C5.23366 9.81592 5.32322 9.73229 5.42802 9.67188C5.53282 9.61146 5.65007 9.57586 5.77076 9.56781C5.89146 9.55977 6.0124 9.57949 6.12429 9.62546C6.23618 9.67143 6.33604 9.74243 6.41622 9.83301L8.33289 11.7497L13.5829 6.49968C13.7434 6.37932 13.9419 6.32089 14.142 6.33511C14.3421 6.34933 14.5303 6.43524 14.6721 6.57709C14.814 6.71893 14.8999 6.90718 14.9141 7.10727C14.9283 7.30736 14.8699 7.50587 14.7496 7.66634L8.91622 13.4997C8.84206 13.5805 8.75191 13.645 8.6515 13.6892C8.55108 13.7333 8.44258 13.7561 8.33289 13.7561C8.22319 13.7561 8.1147 13.7333 8.01428 13.6892C7.91386 13.645 7.82371 13.5805 7.74955 13.4997Z" fill="#BC0000"/>
</g>
<defs>
<clipPath id="clip0_669_9">
<rect width="20" height="20" fill="white"/>
</clipPath>
</defs>
</svg>
