<svg width="34" height="30" viewBox="0 0 34 30" fill="none" xmlns="http://www.w3.org/2000/svg">
<path d="M29.184 9.0893C24.6631 4.56709 19.7519 9.0893 19.7519 9.0893V9.85924H18.5995V9.06618C20.1959 8.42968 21.329 6.87561 21.329 5.04952C21.329 2.65496 19.3888 0.719727 16.998 0.719727C14.6048 0.719727 12.6671 2.65483 12.6671 5.04952C12.6671 6.832 13.7437 8.3577 15.2811 9.02376V9.85911H14.2429V9.08917C14.2429 9.08917 9.33443 4.56695 4.81354 9.08917C4.81354 9.08917 1.92618 11.018 0 9.08917C0 9.08917 0.193734 14.8639 7.12206 14.8639C7.12206 14.8639 10.1762 15.4439 14.2429 13.5678V12.4102H15.2811V13.4664H16.0343L16.2383 17.5446C13.8771 17.4292 12.0651 16.8478 12.0677 16.1511C12.0715 15.5557 13.3895 15.0654 15.2335 14.8703L15.2349 14.6342C12.9584 14.837 11.3042 15.4272 11.2991 16.1433C11.2953 16.8042 12.6837 17.3765 14.6728 17.6447C13.1792 17.886 12.1628 18.3339 12.1628 18.8561C12.1628 19.4181 13.3204 19.8981 14.986 20.124C13.6154 20.328 12.6773 20.7374 12.6722 21.2084C12.6684 21.7217 13.7348 22.1669 15.2656 22.3762C14.0413 22.5635 13.2033 22.9306 13.2033 23.354C13.2033 23.7955 14.1016 24.1689 15.3951 24.3499C14.443 24.5064 13.7949 24.8003 13.7949 25.1301C13.7949 25.5177 14.6265 25.8449 15.8032 25.9796C15.0704 26.1093 14.5687 26.3274 14.5687 26.593C14.5687 26.9524 15.5029 27.2564 16.7259 27.3116L16.8247 29.2801H17.4547L17.5228 27.3116C18.7573 27.2589 19.7056 26.9613 19.7056 26.593C19.7056 26.3132 19.1743 26.0848 18.3799 25.9616C19.4759 25.8179 20.242 25.5048 20.242 25.1326C20.242 24.8092 19.6684 24.5281 18.7764 24.3639C20.129 24.1869 21.0696 23.8019 21.0696 23.3489C21.0696 22.9319 20.2868 22.5712 19.0921 22.3788C20.569 22.1851 21.5983 21.7616 21.6009 21.261C21.6035 20.7734 20.6281 20.3537 19.214 20.1331C20.9207 19.9098 22.1116 19.4234 22.1116 18.8536C22.1116 18.3236 21.1221 17.8668 19.6182 17.6307C21.4635 17.3727 22.7391 16.8389 22.7442 16.2127C22.7469 15.4761 21.0067 14.8498 18.6366 14.6343V14.8871C20.5165 15.0899 21.8691 15.607 21.864 16.2075C21.8613 16.8863 20.1355 17.4421 17.8691 17.5473L18.0115 13.4627H18.6057V12.4092H19.7568V13.5667C23.8247 15.4429 26.8777 14.8628 26.8777 14.8628C33.8047 14.8628 33.9997 9.08811 33.9997 9.08811C32.0713 11.018 29.184 9.0893 29.184 9.0893ZM12.8314 18.8639C12.8314 18.3531 13.962 17.9142 15.5519 17.7372L16.2513 17.7795L16.3643 20.0521C14.3584 19.9509 12.8314 19.4606 12.8314 18.8639ZM13.2728 21.2199C13.2754 20.7593 14.3058 20.373 15.7443 20.2229V20.2126L16.3731 20.2549L16.4758 22.3081C14.6588 22.212 13.2677 21.759 13.2728 21.2199ZM13.731 23.3578C13.731 22.9536 14.6343 22.6059 15.9022 22.4711V22.4506L16.486 22.4866L16.5759 24.2985C14.9666 24.2241 13.731 23.8366 13.731 23.3578ZM14.2301 25.1365C14.2301 24.8105 14.9475 24.5347 15.9561 24.4153L16.5836 24.4551L16.6568 25.9091C15.2913 25.8693 14.2301 25.5382 14.2301 25.1365ZM14.9141 26.5981C14.9141 26.3415 15.4723 26.1208 16.2628 26.0297L16.6631 26.0477L16.7209 27.2154C15.693 27.1601 14.9141 26.9061 14.9141 26.5981ZM19.3105 26.5981C19.3105 26.901 18.5405 27.1601 17.5267 27.2128L17.5678 26.0399L17.8732 26.0168C18.7126 26.0989 19.3105 26.3299 19.3105 26.5981ZM19.7456 25.1365C19.7456 25.5099 18.814 25.8257 17.5731 25.904L17.6231 24.4615L18.1184 24.4346C19.068 24.559 19.7456 24.8247 19.7456 25.1365ZM20.4667 23.3578C20.4667 23.7942 19.4337 24.1573 18.0311 24.2754L17.9784 24.2677L17.9733 24.2805L17.6281 24.3023L17.6923 22.4994L18.2865 22.4724C19.5544 22.6059 20.4667 22.9434 20.4667 23.3578ZM20.9121 21.2649C20.9121 21.8115 19.5159 22.2452 17.6963 22.3119L17.7694 20.2536L18.393 20.219V20.2305C19.8636 20.3922 20.9197 20.7965 20.9121 21.2649ZM18.633 17.7436C20.2127 17.9195 21.3458 18.3532 21.3458 18.8639C21.3458 19.4683 19.8008 19.9598 17.7757 20.0548L17.8553 17.7872L18.633 17.7436ZM17.1392 6.46371C16.3077 6.46371 15.6378 5.79254 15.6378 4.96362C15.6378 4.13338 16.3077 3.4609 17.1392 3.4609C17.9656 3.4609 18.6368 4.13338 18.6368 4.96362C18.6368 5.79254 17.9656 6.46371 17.1392 6.46371Z" fill="#2D2D2D"/>
</svg>
