<svg width="25" height="25" viewBox="0 0 25 25" fill="none" xmlns="http://www.w3.org/2000/svg">
<path d="M10.4167 10.4167C12.7179 10.4167 14.5833 8.55119 14.5833 6.25C14.5833 3.94881 12.7179 2.08333 10.4167 2.08333C8.11548 2.08333 6.25 3.94881 6.25 6.25C6.25 8.55119 8.11548 10.4167 10.4167 10.4167Z" stroke="#FF0000" stroke-width="2"/>
<path d="M21.2646 11.8898L19.7915 10.4167M19.7915 10.4167L18.3184 8.94354M19.7915 10.4167L21.2646 8.94352M19.7915 10.4167L18.3184 11.8898" stroke="#FF0000" stroke-width="2" stroke-linecap="round"/>
<path d="M18.748 18.75C18.7506 18.579 18.7507 18.4052 18.7507 18.2292C18.7507 15.6403 15.0197 13.5417 10.4173 13.5417C5.81494 13.5417 2.08398 15.6403 2.08398 18.2292C2.08398 20.818 2.08398 22.9167 10.4173 22.9167C12.7413 22.9167 14.4171 22.7534 15.6257 22.4619" stroke="#FF0000" stroke-width="2" stroke-linecap="round"/>
</svg>
