<svg width="25" height="25" viewBox="0 0 25 25" fill="none" xmlns="http://www.w3.org/2000/svg">
<path d="M11.4596 10.4163C13.7608 10.4163 15.6263 8.55086 15.6263 6.24967C15.6263 3.94849 13.7608 2.08301 11.4596 2.08301C9.15845 2.08301 7.29297 3.94849 7.29297 6.24967C7.29297 8.55086 9.15845 10.4163 11.4596 10.4163Z" stroke="#129940" stroke-width="2"/>
<path d="M17.707 10.7295C18.2494 11.2176 18.5535 11.4914 19.0959 11.9795L21.8737 8.85449" stroke="#129940" stroke-width="2" stroke-linecap="round" stroke-linejoin="round"/>
<path d="M19.7891 18.7503C19.7917 18.5793 19.7917 18.4055 19.7917 18.2295C19.7917 15.6406 16.0607 13.542 11.4583 13.542C6.85596 13.542 3.125 15.6406 3.125 18.2295C3.125 20.8183 3.125 22.917 11.4583 22.917C13.7823 22.917 15.4581 22.7538 16.6667 22.4622" stroke="#129940" stroke-width="2" stroke-linecap="round"/>
</svg>
