<svg width="27" height="24" viewBox="0 0 27 24" fill="none" xmlns="http://www.w3.org/2000/svg">
<path d="M4.15818 13.3893L3.58738 13.9743L4.1725 14.5453L4.7433 13.96L4.15818 13.3893ZM11.4626 16.6917L19.6356 8.51859L18.4797 7.36274L10.3068 15.5357L11.4626 16.6917ZM10.3068 8.51857L18.4797 16.6917L19.6356 15.5357L11.4626 7.36274L10.3068 8.51857ZM25.0512 12.0272C25.0512 17.5942 20.5382 22.1072 14.9712 22.1072V23.7418C21.4409 23.7418 26.6858 18.4969 26.6858 12.0272H25.0512ZM4.89117 12.0272C4.89117 6.4601 9.40414 1.94711 14.9712 1.94711V0.3125C8.50138 0.3125 3.25658 5.55734 3.25658 12.0272H4.89117ZM14.9712 1.94711C20.5382 1.94711 25.0512 6.4601 25.0512 12.0272H26.6858C26.6858 5.55734 21.4409 0.3125 14.9712 0.3125V1.94711ZM4.9692 13.2883C4.91774 12.8754 4.89117 12.4546 4.89117 12.0272H3.25658C3.25658 12.5223 3.28735 13.0108 3.34716 13.4904L4.9692 13.2883ZM14.9712 22.1072C11.5073 22.1072 8.45114 20.3608 6.63539 17.6967L5.28467 18.6172C7.39188 21.7089 10.944 23.7418 14.9712 23.7418V22.1072ZM4.7433 13.96L8.0644 10.5545L6.89416 9.4133L3.57308 12.8187L4.7433 13.96ZM4.72899 12.8044L1.23928 9.399L0.0976562 10.5688L3.58738 13.9743L4.72899 12.8044Z" fill="#BC0000"/>
</svg>
