<svg width="30" height="30" viewBox="0 0 27 24" fill="none" xmlns="http://www.w3.org/2000/svg">
<path d="M4.15818 13.3887L3.58738 13.9736L4.1725 14.5447L4.7433 13.9593L4.15818 13.3887ZM11.4626 16.691L19.6356 8.51812L18.4797 7.36231L10.3068 15.5351L11.4626 16.691ZM10.3068 8.51811L18.4797 16.691L19.6356 15.5351L11.4626 7.36231L10.3068 8.51811ZM25.0512 12.0266C25.0512 17.5935 20.5382 22.1064 14.9712 22.1064V23.741C21.4409 23.741 26.6858 18.4962 26.6858 12.0266H25.0512ZM4.89117 12.0266C4.89117 6.45969 9.40414 1.94682 14.9712 1.94682V0.312256C8.50138 0.312256 3.25658 5.55695 3.25658 12.0266H4.89117ZM14.9712 1.94682C20.5382 1.94682 25.0512 6.45969 25.0512 12.0266H26.6858C26.6858 5.55695 21.4409 0.312256 14.9712 0.312256V1.94682ZM4.9692 13.2877C4.91774 12.8748 4.89117 12.454 4.89117 12.0266H3.25658C3.25658 12.5217 3.28735 13.0102 3.34716 13.4898L4.9692 13.2877ZM14.9712 22.1064C11.5073 22.1064 8.45114 20.36 6.63539 17.696L5.28467 18.6165C7.39188 21.7081 10.944 23.741 14.9712 23.741V22.1064ZM4.7433 13.9593L8.0644 10.554L6.89416 9.41281L3.57308 12.8181L4.7433 13.9593ZM4.72899 12.8038L1.23928 9.39851L0.0976562 10.5683L3.58738 13.9736L4.72899 12.8038Z" fill="#BC0000"/>
</svg>
