<svg width="30" height="30" viewBox="0 0 30 30" fill="none" xmlns="http://www.w3.org/2000/svg">
<path fill-rule="evenodd" clip-rule="evenodd" d="M24.3711 8.46141V4.67578C24.3711 3.92953 24.0748 3.21422 23.547 2.68641C23.0202 2.15953 22.3048 1.86328 21.5586 1.86328C18.312 1.86328 11.6802 1.86328 8.43359 1.86328C7.68828 1.86328 6.97203 2.15953 6.44516 2.68641C5.91734 3.21422 5.62109 3.92953 5.62109 4.67578V25.312C5.62109 26.0583 5.91734 26.7736 6.44516 27.3005C6.97203 27.8283 7.68828 28.1245 8.43359 28.1245C11.6802 28.1245 18.312 28.1245 21.5586 28.1245C22.0761 28.1245 22.4961 27.7045 22.4961 27.187C22.4961 26.6695 22.0761 26.2495 21.5586 26.2495C18.312 26.2495 11.6802 26.2495 8.43359 26.2495C8.18516 26.2495 7.94703 26.1511 7.77078 25.9748C7.59547 25.7995 7.49609 25.5605 7.49609 25.312V4.67578C7.49609 4.42641 7.59547 4.18828 7.77078 4.01297C7.94703 3.83672 8.18516 3.73828 8.43359 3.73828H21.5586C21.807 3.73828 22.0461 3.83672 22.2214 4.01297C22.3977 4.18828 22.4961 4.42641 22.4961 4.67578V8.46141C22.4961 8.97891 22.9161 9.39891 23.4336 9.39891C23.9511 9.39891 24.3711 8.97891 24.3711 8.46141Z" fill="#129940"/>
<path fill-rule="evenodd" clip-rule="evenodd" d="M14.06 7.52395H13.1328C12.6153 7.52395 12.1953 7.94395 12.1953 8.46145C12.1953 8.97895 12.6153 9.39895 13.1328 9.39895H14.0572L14.0553 10.3224C14.0553 10.8399 14.4744 11.2608 14.9919 11.2618C15.5094 11.2627 15.9303 10.8427 15.9303 10.3252L15.9322 9.39895H16.8594C17.3769 9.39895 17.7969 8.97895 17.7969 8.46145C17.7969 7.94395 17.3769 7.52395 16.8594 7.52395H15.935L15.9369 6.59957C15.9369 6.08207 15.5178 5.66113 15.0003 5.66113C14.4828 5.6602 14.0619 6.07926 14.0619 6.59676L14.06 7.52395Z" fill="#129940"/>
<path fill-rule="evenodd" clip-rule="evenodd" d="M26.2509 20.637V14.0576C26.2509 12.5042 24.9919 11.2451 23.4384 11.2451H19.6875C18.1341 11.2451 16.875 12.5042 16.875 14.0576V20.637C16.875 20.9332 17.0147 21.2117 17.2519 21.3889L21.0244 24.2014C21.3591 24.4507 21.8166 24.4489 22.1494 24.1986L25.8787 21.3861C26.1131 21.2089 26.2509 20.9314 26.2509 20.637ZM24.3759 14.0576V20.1701L21.5812 22.2776L18.75 20.1664V14.0576C18.75 13.5401 19.1691 13.1201 19.6875 13.1201H23.4384C23.9569 13.1201 24.3759 13.5401 24.3759 14.0576Z" fill="#129940"/>
<path fill-rule="evenodd" clip-rule="evenodd" d="M10.3077 15.9258L14.0614 15.9286C14.5789 15.9295 14.9989 15.5095 14.9998 14.992C14.9998 14.4745 14.5808 14.0545 14.0633 14.0536L10.3095 14.0508C9.79203 14.0498 9.37203 14.4698 9.37109 14.9873C9.37109 15.5048 9.79016 15.9248 10.3077 15.9258Z" fill="#129940"/>
<path fill-rule="evenodd" clip-rule="evenodd" d="M10.3155 19.6758L14.0692 19.6786C14.5867 19.6795 15.0067 19.2595 15.0077 18.742C15.0077 18.2245 14.5877 17.8045 14.0702 17.8036L10.3173 17.8008C9.79984 17.7998 9.37891 18.2198 9.37891 18.7373C9.37797 19.2548 9.79797 19.6748 10.3155 19.6758Z" fill="#129940"/>
<path fill-rule="evenodd" clip-rule="evenodd" d="M10.3077 23.4258L14.0614 23.4286C14.5789 23.4295 14.9989 23.0095 14.9998 22.492C14.9998 21.9745 14.5808 21.5545 14.0633 21.5536L10.3095 21.5508C9.79203 21.5498 9.37203 21.9698 9.37109 22.4873C9.37109 23.0048 9.79016 23.4248 10.3077 23.4258Z" fill="#129940"/>
</svg>
