<svg width="19" height="23" viewBox="0 0 19 23" fill="none" xmlns="http://www.w3.org/2000/svg">
<path d="M14.25 11.4083H4.75V5.7041H8.70833" stroke="#BC0000" stroke-width="2" stroke-linecap="round" stroke-linejoin="round"/>
<path d="M4.75 16.1621H14.25" stroke="#BC0000" stroke-width="2" stroke-linecap="round" stroke-linejoin="round"/>
<path d="M12.6654 1.90137H2.76953C2.11369 1.90137 1.58203 2.53983 1.58203 3.32742V19.4894C1.58203 20.2769 2.11369 20.9154 2.76953 20.9154H16.2279C16.8837 20.9154 17.4154 20.2769 17.4154 19.4894V10.4577" stroke="#BC0000" stroke-width="2" stroke-linecap="round" stroke-linejoin="round"/>
<path d="M15.5965 5.495L14.0725 7.019C13.9735 7.118 13.9735 7.27875 14.0725 7.37775L14.6103 7.9155C14.7093 8.0145 14.8698 8.0145 14.969 7.9155L16.4933 6.3915L18.0175 7.9155C18.1165 8.0145 18.277 8.0145 18.376 7.9155L18.914 7.37775C19.013 7.27875 19.013 7.11825 18.914 7.019L17.3898 5.495L18.914 3.97075C19.013 3.87175 19.013 3.711 18.914 3.612L18.3758 3.07425C18.2768 2.97525 18.1163 2.97525 18.0173 3.07425L16.4933 4.5985L14.969 3.07425C14.87 2.97525 14.7095 2.97525 14.6103 3.07425L14.0725 3.61225C13.9735 3.71125 13.9735 3.87175 14.0725 3.971L15.5965 5.495Z" fill="#BC0000"/>
</svg>
