<svg width="28" height="28" viewBox="0 0 28 28" fill="none" xmlns="http://www.w3.org/2000/svg">
<g clip-path="url(#clip0_225_1376)">
<path d="M25.6667 4.66634H14V2.33301H5.83333V4.66634H2.33333V25.6663H0V26.833H12.8333V20.9997H15.1667V26.833H28V25.6663H25.6667V4.66634ZM16.3333 25.6663V19.833H11.6667V25.6663H3.5V5.83301H7V3.49967H12.8333V5.83301H24.5V25.6663H16.3333ZM5.83333 12.833H10.5V8.16634H5.83333V12.833ZM7 9.33301H9.33333V11.6663H7V9.33301ZM11.6667 12.833H16.3333V8.16634H11.6667V12.833ZM12.8333 9.33301H15.1667V11.6663H12.8333V9.33301ZM17.5 12.833H22.1667V8.16634H17.5V12.833ZM18.6667 9.33301H21V11.6663H18.6667V9.33301ZM5.83333 18.6663H10.5V13.9997H5.83333V18.6663ZM7 15.1663H9.33333V17.4997H7V15.1663ZM11.6667 18.6663H16.3333V13.9997H11.6667V18.6663ZM12.8333 15.1663H15.1667V17.4997H12.8333V15.1663ZM17.5 18.6663H22.1667V13.9997H17.5V18.6663ZM18.6667 15.1663H21V17.4997H18.6667V15.1663Z" fill="#000"/>
</g>
<defs>
<clipPath id="clip0_225_1376">
<rect width="28" height="28" fill="white"/>
</clipPath>
</defs>
</svg>
