<svg width="25" height="25" viewBox="0 0 25 25" fill="none" xmlns="http://www.w3.org/2000/svg">
<path d="M23.0229 11.6115V13.4146H1.98333V6.95H0V19.8812H1.98333V16.926H23.0229V20.1281H25V11.6094L23.0229 11.6115Z" fill="black"/>
<path d="M9.07213 11.6302V11.6312C9.07213 12.2187 8.59609 12.6958 8.00755 12.6958H3.95234C3.36484 12.6958 2.88672 12.2198 2.88672 11.6312V11.6302V11.6292C2.88672 11.0417 3.36276 10.5646 3.9513 10.5646H8.00651C8.59401 10.5646 9.07213 11.0406 9.07213 11.6292V11.6302Z" fill="black"/>
<path d="M20.5651 7.4625H18.0964V5H16.3464V7.46354H13.8828V9.21354H16.3453V11.6771H18.0953V9.21354H20.5641L20.5651 7.4625Z" fill="black"/>
</svg>
