<svg width="25" height="25" viewBox="0 0 25 25" fill="none" xmlns="http://www.w3.org/2000/svg">
<path fill-rule="evenodd" clip-rule="evenodd" d="M3.125 14.8438C3.55647 14.8438 3.90625 15.1935 3.90625 15.625C3.90625 17.1202 3.90791 18.163 4.0137 18.9499C4.11646 19.7143 4.30443 20.119 4.59272 20.4073C4.88101 20.6956 5.28578 20.8835 6.05013 20.9864C6.83695 21.0921 7.87978 21.0938 9.375 21.0938H15.625C17.1202 21.0938 18.163 21.0921 18.9499 20.9864C19.7143 20.8835 20.119 20.6956 20.4073 20.4073C20.6956 20.119 20.8835 19.7143 20.9864 18.9499C21.0921 18.163 21.0938 17.1202 21.0938 15.625C21.0938 15.1935 21.4435 14.8438 21.875 14.8438C22.3065 14.8438 22.6562 15.1935 22.6562 15.625V15.6822C22.6562 17.1068 22.6562 18.255 22.5349 19.1581C22.4089 20.0957 22.1392 20.8851 21.5122 21.5121C20.8851 22.1392 20.0957 22.4089 19.1581 22.5349C18.255 22.6562 17.1068 22.6562 15.6822 22.6562H9.31784C7.89327 22.6562 6.74502 22.6562 5.84193 22.5349C4.90431 22.4089 4.11487 22.1392 3.48787 21.5122C2.86087 20.8851 2.59119 20.0957 2.46513 19.1581C2.34371 18.255 2.34373 17.1068 2.34375 15.6822C2.34375 15.6631 2.34375 15.6441 2.34375 15.625C2.34375 15.1935 2.69353 14.8438 3.125 14.8438Z" fill="#424242"/>
<path fill-rule="evenodd" clip-rule="evenodd" d="M12.4987 2.34375C12.7181 2.34375 12.9272 2.43596 13.0753 2.59783L17.2419 7.15513C17.5331 7.47356 17.511 7.96773 17.1926 8.25888C16.8741 8.55002 16.3799 8.5279 16.0888 8.20946L13.2799 5.13729V16.6667C13.2799 17.0981 12.9302 17.4479 12.4987 17.4479C12.0672 17.4479 11.7174 17.0981 11.7174 16.6667V5.13729L8.90863 8.20946C8.61748 8.5279 8.12331 8.55002 7.80488 8.25888C7.48644 7.96773 7.4643 7.47356 7.75545 7.15513L11.9221 2.59783C12.0702 2.43596 12.2793 2.34375 12.4987 2.34375Z" fill="#424242"/>
</svg>
