<svg width="25" height="25" viewBox="0 0 25 25" fill="none" xmlns="http://www.w3.org/2000/svg">
<path d="M11.1873 23.9498L11.1896 23.948H11.1855L11.1873 23.9498Z" fill="black"/>
<path d="M10.6921 14.4365H10.6653L9.63995 13.2612C10.1356 13.4391 10.652 13.5466 11.1876 13.5466C11.7238 13.5466 12.2393 13.4409 12.734 13.2621L11.7087 14.4365H11.6837L14.196 20.5124L16.4917 17.4636L19.0373 19.3783L20.6348 16.9785C19.1258 15.0639 16.749 13.3553 13.9481 12.6455C15.9722 11.2834 17.3671 8.59781 17.3671 6.17992C17.3669 2.76676 14.599 0 11.1876 0C7.77623 0 5.00916 2.76676 5.00916 6.17978C5.00916 8.59766 6.40273 11.2833 8.42727 12.6454C3.5873 13.8731 0 18.0744 0 21.189C0 23.0289 5.59267 23.948 11.1858 23.946L8.05353 20.8151L10.6921 14.4365Z" fill="black"/>
<path d="M11.1895 23.9479C12.8251 23.946 14.4608 23.8696 15.9552 23.7109L13.3694 21.7671L11.1895 23.9479Z" fill="black"/>
<path d="M22.7923 16.2655L19.3815 21.3886L16.7694 19.424L15.2568 21.4325L20.0016 25L24.8848 17.6595L22.7923 16.2655Z" fill="black"/>
</svg>
